<svg xmlns="http://www.w3.org/2000/svg" width="20" height="20" viewBox="0 0 48 48">
  <path fill="#fbc02d" d="M43.6 20.5H42V20H24v8h11.3c-1.6 4.5-5.9 8-11.3 8-6.6 0-12-5.4-12-12s5.4-12 12-12c3.1 0 5.9 1.2 8 3.1l5.7-5.7C34.1 6.1 29.3 4 24 4 12.9 4 4 12.9 4 24s8.9 20 20 20 20-8.9 20-20c0-1.2-.1-2.5-.4-3.5z"></path>
  <path fill="#e53935" d="M6.3 14.7l6.6 4.8C14.3 16.2 18.8 14 24 14c3.1 0 5.9 1.2 8 3.1l5.7-5.7C34.1 6.1 29.3 4 24 4c-7.3 0-13.6 3.9-17.2 9.7-.2.3-.4.7-.5 1z"></path>
  <path fill="#4caf50" d="M24 44c5.3 0 10.1-2 13.7-5.3l-6.3-5.3c-2 1.5-4.5 2.6-7.4 2.6-5.3 0-9.8-3.5-11.4-8.3l-6.6 5.1C9.9 39.9 16.4 44 24 44z"></path>
  <path fill="#1565c0" d="M43.6 20.5H42V20H24v8h11.3c-0.7 2-2 3.8-3.7 5.1l6.3 5.3c-0.4.4 7.1-6.5 7.1-17.9 0-1.2-.1-2.5-.4-3.5z"></path>
</svg>
